<?xml version="1.0" standalone="no"?>
<!DOCTYPE svg PUBLIC "-//W3C//DTD SVG 20010904//EN"
 "http://www.w3.org/TR/2001/REC-SVG-20010904/DTD/svg10.dtd">
<svg version="1.0" xmlns="http://www.w3.org/2000/svg"
 width="804.000000pt" height="804.000000pt" viewBox="0 0 804.000000 804.000000"
 preserveAspectRatio="xMidYMid meet">
<metadata>
Created by potrace 1.11, written by Peter Selinger 2001-2013
</metadata>
<g transform="translate(0.000000,804.000000) scale(0.100000,-0.100000)"
fill="#000000" stroke="none">
<path d="M3815 7854 c-728 -38 -1442 -284 -2019 -697 -246 -175 -516 -423
-701 -642 -434 -515 -718 -1115 -839 -1775 -81 -442 -81 -920 0 -1360 176
-955 700 -1796 1479 -2373 541 -401 1181 -649 1867 -723 204 -22 572 -22 776
0 864 94 1638 455 2251 1051 318 310 550 624 746 1010 273 537 408 1103 408
1715 0 337 -35 619 -114 934 -270 1072 -1012 1986 -2004 2471 -406 199 -824
321 -1270 369 -144 16 -456 26 -580 20z m236 -693 l29 -29 0 -252 c0 -302 -5
-320 -90 -320 -85 0 -90 18 -90 320 l0 252 29 29 c20 20 39 29 61 29 22 0 41
-9 61 -29z m-1493 -568 c51 -88 92 -165 92 -170 0 -17 -33 -25 -45 -11 -7 7
-56 89 -109 183 -91 158 -96 170 -79 183 24 17 27 13 141 -185z m3022 172 c0
-7 -193 -340 -205 -353 -13 -14 -45 -6 -45 11 0 11 158 291 192 339 16 23 23
26 39 18 10 -6 19 -12 19 -15z m-4123 -1211 c92 -53 174 -102 181 -109 14 -13
6 -45 -11 -45 -11 0 -291 158 -339 192 -23 16 -26 23 -18 39 6 10 12 19 15 19
2 0 79 -43 172 -96z m5253 77 c8 -16 5 -23 -18 -39 -48 -34 -328 -192 -339
-192 -15 0 -26 31 -14 43 11 11 343 205 353 206 4 1 12 -8 18 -18z m-1134
-1022 c84 -51 81 -185 -5 -237 -16 -9 -303 -96 -639 -192 l-610 -175 -17 -53
c-9 -29 -36 -77 -61 -107 -24 -30 -44 -60 -44 -66 0 -6 88 -426 196 -932 l195
-921 -16 -43 c-21 -53 -64 -85 -124 -90 -54 -5 -103 22 -132 72 -9 17 -103
437 -209 935 -105 498 -193 912 -196 920 -2 8 -27 23 -54 33 -70 25 -151 107
-179 182 -48 127 -19 267 74 360 120 120 316 130 448 22 l42 -34 620 178 c449
129 628 177 650 173 17 -4 44 -15 61 -25z m-4127 -474 c32 -16 41 -33 41 -75
0 -85 -18 -90 -320 -90 l-252 0 -29 29 c-20 20 -29 39 -29 61 0 22 9 41 29 61
l29 29 252 0 c201 0 257 -3 279 -15z m5642 -14 c20 -20 29 -39 29 -61 0 -22
-9 -41 -29 -61 l-29 -29 -252 0 c-305 0 -320 4 -320 94 0 35 14 57 45 74 13 8
109 11 273 12 l254 0 29 -29z m-5447 -1418 c4 -9 1 -22 -6 -28 -7 -7 -89 -56
-183 -109 -157 -90 -170 -96 -182 -80 -11 15 -11 20 -1 30 19 19 341 204 354
204 7 0 15 -8 18 -17z m4879 -75 c198 -114 202 -117 185 -141 -13 -17 -25 -12
-183 79 -94 53 -176 102 -183 109 -14 12 -6 45 11 45 5 0 82 -41 170 -92z
m-3889 -914 c9 -3 16 -11 16 -17 0 -12 -176 -320 -199 -349 -14 -16 -19 -17
-34 -5 -18 12 -13 23 73 172 102 178 119 205 124 205 3 0 11 -3 20 -6z m2844
-179 c97 -168 102 -180 85 -193 -15 -11 -20 -10 -34 6 -23 29 -199 337 -199
350 0 12 20 22 35 18 6 -1 56 -83 113 -181z m-1443 19 c40 -16 45 -52 45 -314
l0 -252 -29 -29 c-20 -20 -39 -29 -61 -29 -22 0 -41 9 -61 29 l-29 29 0 252
c0 303 4 317 87 319 17 1 39 -2 48 -5z"/>
</g>
</svg>
